<?xml version="1.0" encoding="UTF-8"?>
<!-- Created with Inkscape (http://www.inkscape.org/) -->
<svg width="24.089" height="17.943" inkscape:version="0.92.1 r15371" sodipodi:docname="download2.svg" version="1.1" viewBox="0 0 24.088984 17.942947" xmlns="http://www.w3.org/2000/svg" xmlns:cc="http://creativecommons.org/ns#" xmlns:dc="http://purl.org/dc/elements/1.1/" xmlns:inkscape="http://www.inkscape.org/namespaces/inkscape" xmlns:rdf="http://www.w3.org/1999/02/22-rdf-syntax-ns#" xmlns:sodipodi="http://sodipodi.sourceforge.net/DTD/sodipodi-0.dtd">
 <metadata>
  <rdf:RDF>
   <cc:Work rdf:about="">
    <dc:format>image/svg+xml</dc:format>
    <dc:type rdf:resource="http://purl.org/dc/dcmitype/StillImage"/>
    <dc:title/>
   </cc:Work>
  </rdf:RDF>
 </metadata>
 <sodipodi:namedview bordercolor="#666666" borderopacity="1" fit-margin-bottom="0" fit-margin-left="0" fit-margin-right="0" fit-margin-top="0" gridtolerance="10" guidetolerance="10" inkscape:current-layer="svg3680" inkscape:cx="11.134628" inkscape:cy="4.3366644" inkscape:guide-bbox="true" inkscape:pageopacity="0" inkscape:pageshadow="2" inkscape:window-height="877" inkscape:window-maximized="1" inkscape:window-width="1600" inkscape:window-x="-8" inkscape:window-y="-8" inkscape:zoom="16" objecttolerance="10" pagecolor="#ffffff" showgrid="false" showguides="true">
  <sodipodi:guide inkscape:locked="false" orientation="1,0" position="5.0127119,11.098907"/>
  <sodipodi:guide inkscape:locked="false" orientation="1,0" position="12.065009,10.783378"/>
 </sodipodi:namedview>
 <path d="m11.055 0v5.9922h-5.0547-2v2 3h-2.9844c-0.56312-1e-6 -1.0156 0.45446-1.0156 1.0176v4.916c-1.4803e-16 0.56312 0.4525 1.0176 1.0156 1.0176h7.9688c0.56312 0 1.0156-0.45446 1.0156-1.0176v-4.916c0-0.56312-0.4525-1.0176-1.0156-1.0176h-2.9844v-3h5.0547 0.44531 1.5547 5.0352v3h-2.9844c-0.56312 0-1.0156 0.45446-1.0156 1.0176v4.916c0 0.56312 0.4525 1.0176 1.0156 1.0176h7.9668c0.56312 0 1.0176-0.45446 1.0176-1.0176v-4.916c0-0.56312-0.45446-1.0176-1.0176-1.0176h-2.9824v-5h-7.0352v-5.9922h-2z" fill="#8e8c84" stroke-width=".87832"/>
</svg>
